Coordinates
version=1
nRows=16
nColumns=40
inDegrees=yes

Units are S.I. units (second, meters, Newtons, ...)
Angles are in degrees.

endheader
time	pelvis_tilt	pelvis_list	pelvis_rotation	pelvis_tx	pelvis_ty	pelvis_tz	hip_flexion_r	hip_adduction_r	hip_rotation_r	knee_angle_r	knee_angle_r_beta	ankle_angle_r	subtalar_angle_r	mtp_angle_r	hip_flexion_l	hip_adduction_l	hip_rotation_l	knee_angle_l	knee_angle_l_beta	ankle_angle_l	subtalar_angle_l	mtp_angle_l	lumbar_extension	lumbar_bending	lumbar_rotation	arm_flex_r	arm_add_r	arm_rot_r	elbow_flex_r	pro_sup_r	wrist_flex_r	wrist_dev_r	arm_flex_l	arm_add_l	arm_rot_l	elbow_flex_l	pro_sup_l	wrist_flex_l	wrist_dev_l
      4.29692857	     -3.56049071	     -2.73046285	     -7.11086653	      0.91002596	      0.91613814	      0.49830833	     27.72504329	     -0.59774272	    -16.02530582	     13.46328646	     13.46328646	      0.96763021	      4.94050833	      7.80637678	     -4.24938757	     -3.51075221	    -14.58290601	     11.24677985	     11.24677985	     18.68028527	     -4.78801819	     -6.86820487	    -11.68914820	      4.64442676	      0.63540749	    -21.20545928	    -12.25418262	     -9.45082492	     27.69176175	     47.14839349	      0.00000000	      0.00000000	     14.84624800	    -19.85385814	    -11.96041633	     99.53265113	     48.20211478	      0.00000000	      0.00000000
      4.30885714	     -3.50035287	     -2.71755454	     -6.91550523	      0.91134855	      0.91452682	      0.50076877	     27.66336313	     -0.44434013	    -15.04129290	     14.83253713	     14.83253713	     -0.58444008	      2.51054583	      2.36509119	     -4.48915923	     -3.80343784	    -14.71472730	     12.37687154	     12.37687154	     20.48355265	     -3.96073176	     -4.41181424	    -11.54058140	      4.65912412	      0.41820481	    -20.61958377	    -12.05040478	     -9.55974340	     27.28836268	     47.10499338	      0.00000000	      0.00000000	     14.25953758	    -19.69866489	    -12.34185444	    100.30978405	     48.30794285	      0.00000000	      0.00000000
      4.32078571	     -3.43374962	     -2.92141144	     -6.64447453	      0.91266594	      0.91336179	      0.50319635	     27.52566952	     -0.17430739	    -14.45396397	     16.31425965	     16.31425965	     -0.83091765	      0.80837974	      0.98746810	     -4.81558091	     -4.28103364	    -14.39843953	     13.25412888	     13.25412888	     21.15583848	     -4.14470405	     -3.92179199	    -11.45821688	      4.98981325	      0.43275973	    -20.01724399	    -11.88709345	     -9.46265962	     27.24033972	     47.06813689	      0.00000000	      0.00000000	     13.76026713	    -19.40444935	    -12.25051807	    100.41601040	     48.33613913	      0.00000000	      0.00000000
      4.33271429	     -3.34498060	     -3.05554318	     -6.34327556	      0.91397036	      0.91245721	      0.50560078	     27.43826975	     -0.05924643	    -14.03939524	     17.95039316	     17.95039316	     -0.65143809	     -0.43608383	      0.22712862	     -5.06289175	     -4.70743613	    -13.99878743	     14.26237535	     14.26237535	     21.53982870	     -4.48812129	     -3.82454378	    -11.41227183	      5.23319912	      0.49860481	    -19.31278085	    -11.67630506	     -9.37098176	     27.32822646	     47.05213334	      0.00000000	      0.00000000	     13.21650627	    -19.00734536	    -12.11717430	    100.30521944	     48.33309993	      0.00000000	      0.00000000
      4.34464286	     -3.05331610	     -3.29484699	     -6.06031269	      0.91548620	      0.91243670	      0.50806172	     26.86828442	      0.16076331	    -13.83434611	     19.09916673	     19.09916673	     -0.39065225	     -1.11318536	     -0.18252199	     -5.56797262	     -5.22181050	    -13.68357064	     15.22147809	     15.22147809	     21.62399314	     -4.88197820	     -3.83089828	    -11.61923288	      5.60470767	      0.62861967	    -18.49953820	    -11.51237234	     -9.30429436	     27.51873820	     47.04264933	      0.00000000	      0.00000000	     12.53395186	    -18.44617170	    -11.84737791	    100.04664426	     48.31004214	      0.00000000	      0.00000000
      4.35657143	     -3.12388018	     -3.39819532	     -5.73786321	      0.91635834	      0.91195776	      0.51054536	     26.90553419	      0.34368140	    -13.11990730	     20.41405281	     20.41405281	     -0.14627387	     -2.87352632	     -0.87859538	     -4.99724336	     -5.78769085	    -13.08970662	     17.36947046	     17.36947046	     21.80197278	     -5.77269510	     -3.85771335	    -11.44725185	      5.87054199	      0.58706636	    -17.35546304	    -11.38416264	     -9.14074812	     27.47673378	     47.03102566	      0.00000000	      0.00000000	     11.75777082	    -18.09230081	    -11.78880123	     99.61295337	     48.30482707	      0.00000000	      0.00000000
      4.36850000	     -2.72152258	     -3.47973891	     -5.55097166	      0.91769697	      0.91302147	      0.51310522	     26.06528675	      0.45191045	    -12.86208177	     21.08829519	     21.08829519	      0.42140498	     -3.20443225	     -1.23732428	     -5.33269412	     -6.17736570	    -12.85089078	     18.78810582	     18.78810582	     21.45373614	     -6.29193514	     -3.91310666	    -11.86068697	      6.05734020	      0.92148873	    -16.16517204	    -11.17146220	     -9.05322044	     27.78039404	     47.01960356	      0.00000000	      0.00000000	     10.80987889	    -17.33628766	    -11.42364294	     99.16719857	     48.26939016	      0.00000000	      0.00000000
      4.38042857	     -2.87972728	     -3.73041613	     -5.14562439	      0.91811213	      0.91330781	      0.51562015	     25.89009826	      0.80632259	    -12.47326655	     21.67927992	     21.67927992	      0.63483336	     -4.65819123	     -2.14091041	     -4.06308998	     -7.00044352	    -11.90284899	     21.90468702	     21.90468702	     20.80793578	     -8.06879751	     -4.70087315	    -11.65982674	      6.47174584	      0.56361546	    -14.18179857	    -11.28350854	     -8.49606072	     26.65694054	     47.01105922	      0.00000000	      0.00000000	      9.79886796	    -16.92166525	    -11.81863599	     98.13173239	     48.30454903	      0.00000000	      0.00000000
      4.39235714	     -2.67769743	     -3.96497989	     -4.84054137	      0.91868883	      0.91465352	      0.51813599	     25.12385658	      1.02611771	    -12.66052294	     21.95585468	     21.95585468	      1.33054149	     -4.63905191	     -2.51548687	     -3.27690693	     -7.76287221	    -11.37428733	     24.84661084	     24.84661084	     19.98384035	     -9.25216751	     -5.12985202	    -11.96575776	      6.82531543	      0.77194488	    -12.70190714	    -11.32465682	     -8.41482269	     27.00701762	     46.99840745	      0.00000000	      0.00000000	      8.83841016	    -16.28904219	    -11.45747710	     97.38632261	     48.26699355	      0.00000000	      0.00000000
      4.40428571	     -2.74773645	     -4.14421184	     -4.52622234	      0.91880862	      0.91592575	      0.52056666	     24.51087936	      1.22616616	    -12.95375871	     21.87111263	     21.87111263	      1.96295473	     -4.46112390	     -2.84028398	     -1.79696381	     -8.50837339	    -10.67502266	     28.34688284	     28.34688284	     18.72169124	    -10.83018393	     -5.75282320	    -11.94423619	      7.16841101	      0.86310288	    -11.06052512	    -11.32941750	     -8.29183900	     27.28467624	     46.98527431	      0.00000000	      0.00000000	      7.72277857	    -15.66166684	    -11.14905130	     96.16991224	     48.22459922	      0.00000000	      0.00000000
      4.41621429	     -2.62618337	     -4.41698025	     -4.23629321	      0.91874838	      0.91764273	      0.52305209	     23.62633304	      1.52144174	    -13.35280929	     21.66533912	     21.66533912	      2.66155464	     -4.09587741	     -3.16144853	     -0.38389649	     -9.35046883	    -10.06015105	     32.01447155	     32.01447155	     17.22547919	    -12.35604746	     -6.15072002	    -12.23836535	      7.56400848	      1.07960152	     -9.22272302	    -11.44908005	     -8.20472101	     27.70095739	     46.97336315	      0.00000000	      0.00000000	      6.72957626	    -14.94490280	    -10.76778981	     95.01668520	     48.17684231	      0.00000000	      0.00000000
      4.42814286	     -2.80315259	     -4.51815112	     -3.84449552	      0.91833568	      0.91911177	      0.52521093	     22.94050786	      1.55931904	    -14.18217991	     21.18758103	     21.18758103	      3.23300088	     -3.04039782	     -3.72329206	      1.64977134	     -9.91094612	     -9.03140388	     35.87509014	     35.87509014	     15.09336188	    -14.61885531	     -6.88921899	    -12.07824826	      7.80449202	      1.01599068	     -7.12863508	    -11.58722781	     -7.84572436	     27.47605963	     46.95573584	      0.00000000	      0.00000000	      5.67553060	    -14.27260316	    -10.71506788	     92.54378993	     48.13916701	      0.00000000	      0.00000000
      4.44007143	     -2.88051646	     -4.83364653	     -3.51517276	      0.91765772	      0.92070194	      0.52758630	     22.03798469	      1.92340823	    -14.93290186	     20.47344368	     20.47344368	      3.72034069	     -2.10677250	     -4.04516498	      3.75190232	    -10.84502462	     -8.44774304	     39.97788056	     39.97788056	     13.34763006	    -15.93067375	     -6.67234702	    -12.16099116	      8.21555090	      1.15159843	     -5.14432569	    -11.78116414	     -7.68500661	     27.86939412	     46.93369986	      0.00000000	      0.00000000	      4.57597664	    -13.58490300	    -10.28260701	     91.02198697	     48.08645228	      0.00000000	      0.00000000
      4.45200000	     -2.94567104	     -5.17213948	     -3.16207338	      0.91676150	      0.92218983	      0.52984747	     21.11585128	      2.32220007	    -15.71809867	     19.72545817	     19.72545817	      4.19284738	     -1.19011217	     -4.29731730	      5.97142708	    -11.77868571	     -7.83853295	     44.04973428	     44.04973428	     11.74236491	    -17.00201085	     -6.07908565	    -12.27663997	      8.66568397	      1.38655058	     -3.17744340	    -12.04432873	     -7.60605810	     28.44678550	     46.91539597	      0.00000000	      0.00000000	      3.47637454	    -12.92468048	     -9.82481696	     89.57191802	     48.02820294	      0.00000000	      0.00000000
      4.46392857	     -3.06531956	     -5.31533680	     -2.83639030	      0.91566006	      0.92365854	      0.53185582	     20.21907135	      2.44652244	    -16.86822205	     18.90019310	     18.90019310	      4.48187353	      0.52061276	     -5.09884438	      8.52532067	    -12.32907109	     -7.02317072	     48.39175830	     48.39175830	     12.43262297	    -17.09319378	      0.37768537	    -12.25177837	      8.90912182	      1.58384087	     -0.91485708	    -12.40454760	     -6.72631197	     28.42817065	     46.81683870	      0.00000000	      0.00000000	      2.80586442	    -12.22290794	     -9.39843498	     86.47894954	     47.98325669	      0.00000000	      0.00000000
      4.47585714	     -3.17347704	     -5.54311310	     -2.51050844	      0.91442282	      0.92490843	      0.53388590	     19.33547198	      2.70972974	    -17.90106052	     18.10613448	     18.10613448	      4.84433889	      2.03014442	     -5.45974413	     10.98520788	    -13.02851019	     -6.41518668	     52.17362359	     52.17362359	     12.15351134	    -17.48522199	      3.79728944	    -12.29839452	      9.22027864	      1.79870167	      1.14540727	    -12.78853195	     -6.27095798	     29.18566147	     46.72979554	      0.00000000	      0.00000000	      1.87590383	    -11.58029517	     -8.96910767	     84.10455432	     47.93638131	      0.00000000	      0.00000000
